<mxfile host="app.diagrams.net" modified="2024-04-02T09:59:12.152Z" agent="Mozilla/5.0 (Macintosh; Intel Mac OS X 10_15_7) AppleWebKit/537.36 (KHTML, like Gecko) Chrome/119.0.0.0 Safari/537.36" etag="3nQ9DTOXKACqs3eEn3zo" version="24.2.0" type="github">
  <diagram name="第 1 页" id="mQiorSThcrPRSdaQ8d4-">
    <mxGraphModel dx="630" dy="446" grid="1" gridSize="10" guides="1" tooltips="1" connect="1" arrows="1" fold="1" page="1" pageScale="1" pageWidth="827" pageHeight="1169" math="0" shadow="0">
      <root>
        <mxCell id="0" />
        <mxCell id="1" parent="0" />
        <mxCell id="XeZJ_jHENDwoYxKy2DD4-1" value="" style="rounded=0;whiteSpace=wrap;html=1;" vertex="1" parent="1">
          <mxGeometry x="171" y="90" width="210" height="180" as="geometry" />
        </mxCell>
        <mxCell id="XeZJ_jHENDwoYxKy2DD4-10" style="edgeStyle=orthogonalEdgeStyle;rounded=0;orthogonalLoop=1;jettySize=auto;html=1;exitX=1;exitY=0.5;exitDx=0;exitDy=0;entryX=0;entryY=0.5;entryDx=0;entryDy=0;endArrow=none;endFill=0;fillColor=#d5e8d4;strokeColor=#82b366;" edge="1" parent="1" source="XeZJ_jHENDwoYxKy2DD4-2" target="XeZJ_jHENDwoYxKy2DD4-3">
          <mxGeometry relative="1" as="geometry" />
        </mxCell>
        <mxCell id="XeZJ_jHENDwoYxKy2DD4-11" style="rounded=0;orthogonalLoop=1;jettySize=auto;html=1;exitX=0.5;exitY=1;exitDx=0;exitDy=0;entryX=0;entryY=0;entryDx=0;entryDy=0;endArrow=none;endFill=0;strokeColor=#FFB570;" edge="1" parent="1" source="XeZJ_jHENDwoYxKy2DD4-2" target="XeZJ_jHENDwoYxKy2DD4-6">
          <mxGeometry relative="1" as="geometry" />
        </mxCell>
        <mxCell id="XeZJ_jHENDwoYxKy2DD4-2" value="&lt;font color=&quot;#3f9639&quot; style=&quot;font-size: 11px;&quot;&gt;药物a&lt;/font&gt;" style="ellipse;whiteSpace=wrap;html=1;aspect=fixed;fillColor=#d5e8d4;strokeColor=#82b366;fontSize=11;" vertex="1" parent="1">
          <mxGeometry x="200" y="160" width="40" height="40" as="geometry" />
        </mxCell>
        <mxCell id="XeZJ_jHENDwoYxKy2DD4-12" style="rounded=0;orthogonalLoop=1;jettySize=auto;html=1;exitX=0.5;exitY=1;exitDx=0;exitDy=0;entryX=0;entryY=0;entryDx=0;entryDy=0;endArrow=none;endFill=0;strokeColor=#FFB570;" edge="1" parent="1" source="XeZJ_jHENDwoYxKy2DD4-3" target="XeZJ_jHENDwoYxKy2DD4-7">
          <mxGeometry relative="1" as="geometry" />
        </mxCell>
        <mxCell id="XeZJ_jHENDwoYxKy2DD4-18" style="rounded=0;orthogonalLoop=1;jettySize=auto;html=1;exitX=0.5;exitY=0;exitDx=0;exitDy=0;entryX=0;entryY=1;entryDx=0;entryDy=0;strokeColor=#B5739D;endArrow=none;endFill=0;" edge="1" parent="1" source="XeZJ_jHENDwoYxKy2DD4-3" target="XeZJ_jHENDwoYxKy2DD4-9">
          <mxGeometry relative="1" as="geometry" />
        </mxCell>
        <mxCell id="XeZJ_jHENDwoYxKy2DD4-3" value="&lt;font color=&quot;#3f9639&quot; style=&quot;font-size: 11px;&quot;&gt;药物b&lt;/font&gt;" style="ellipse;whiteSpace=wrap;html=1;aspect=fixed;fillColor=#d5e8d4;strokeColor=#82b366;fontSize=11;" vertex="1" parent="1">
          <mxGeometry x="260" y="160" width="40" height="40" as="geometry" />
        </mxCell>
        <mxCell id="XeZJ_jHENDwoYxKy2DD4-13" style="rounded=0;orthogonalLoop=1;jettySize=auto;html=1;exitX=0.5;exitY=1;exitDx=0;exitDy=0;entryX=1;entryY=0;entryDx=0;entryDy=0;endArrow=none;endFill=0;strokeColor=#FFB570;" edge="1" parent="1" source="XeZJ_jHENDwoYxKy2DD4-5" target="XeZJ_jHENDwoYxKy2DD4-7">
          <mxGeometry relative="1" as="geometry" />
        </mxCell>
        <mxCell id="XeZJ_jHENDwoYxKy2DD4-5" value="&lt;font color=&quot;#3f9639&quot; style=&quot;font-size: 11px;&quot;&gt;药物c&lt;/font&gt;" style="ellipse;whiteSpace=wrap;html=1;aspect=fixed;fillColor=#d5e8d4;strokeColor=#82b366;fontSize=11;" vertex="1" parent="1">
          <mxGeometry x="320" y="160" width="40" height="40" as="geometry" />
        </mxCell>
        <mxCell id="XeZJ_jHENDwoYxKy2DD4-38" style="edgeStyle=orthogonalEdgeStyle;rounded=0;orthogonalLoop=1;jettySize=auto;html=1;exitX=1;exitY=0.5;exitDx=0;exitDy=0;entryX=0;entryY=0.5;entryDx=0;entryDy=0;strokeColor=#F19C99;endArrow=none;endFill=0;" edge="1" parent="1" source="XeZJ_jHENDwoYxKy2DD4-6" target="XeZJ_jHENDwoYxKy2DD4-7">
          <mxGeometry relative="1" as="geometry" />
        </mxCell>
        <mxCell id="XeZJ_jHENDwoYxKy2DD4-6" value="&lt;font style=&quot;font-size: 9px;&quot; color=&quot;#d1945c&quot;&gt;蛋白质m&lt;/font&gt;" style="ellipse;whiteSpace=wrap;html=1;aspect=fixed;fillColor=#fff2cc;strokeColor=#d6b656;" vertex="1" parent="1">
          <mxGeometry x="230" y="220" width="40" height="40" as="geometry" />
        </mxCell>
        <mxCell id="XeZJ_jHENDwoYxKy2DD4-7" value="&lt;font style=&quot;font-size: 9px;&quot; color=&quot;#d1945c&quot;&gt;蛋白质n&lt;/font&gt;" style="ellipse;whiteSpace=wrap;html=1;aspect=fixed;fillColor=#fff2cc;strokeColor=#d6b656;" vertex="1" parent="1">
          <mxGeometry x="290" y="220" width="40" height="40" as="geometry" />
        </mxCell>
        <mxCell id="XeZJ_jHENDwoYxKy2DD4-14" style="rounded=0;orthogonalLoop=1;jettySize=auto;html=1;exitX=0;exitY=1;exitDx=0;exitDy=0;entryX=0.5;entryY=0;entryDx=0;entryDy=0;endArrow=none;endFill=0;strokeColor=#B5739D;" edge="1" parent="1" source="XeZJ_jHENDwoYxKy2DD4-8" target="XeZJ_jHENDwoYxKy2DD4-2">
          <mxGeometry relative="1" as="geometry" />
        </mxCell>
        <mxCell id="XeZJ_jHENDwoYxKy2DD4-15" style="rounded=0;orthogonalLoop=1;jettySize=auto;html=1;exitX=1;exitY=1;exitDx=0;exitDy=0;entryX=0;entryY=0;entryDx=0;entryDy=0;endArrow=none;endFill=0;strokeColor=#B5739D;" edge="1" parent="1" source="XeZJ_jHENDwoYxKy2DD4-8" target="XeZJ_jHENDwoYxKy2DD4-5">
          <mxGeometry relative="1" as="geometry" />
        </mxCell>
        <mxCell id="XeZJ_jHENDwoYxKy2DD4-8" value="&lt;font color=&quot;#6600cc&quot; style=&quot;font-size: 10px;&quot;&gt;疾病s&lt;/font&gt;" style="ellipse;whiteSpace=wrap;html=1;aspect=fixed;fillColor=#e1d5e7;strokeColor=#9673a6;" vertex="1" parent="1">
          <mxGeometry x="230" y="100" width="40" height="40" as="geometry" />
        </mxCell>
        <mxCell id="XeZJ_jHENDwoYxKy2DD4-17" style="rounded=0;orthogonalLoop=1;jettySize=auto;html=1;exitX=1;exitY=1;exitDx=0;exitDy=0;entryX=0.5;entryY=0;entryDx=0;entryDy=0;endArrow=none;endFill=0;strokeColor=#B5739D;" edge="1" parent="1" source="XeZJ_jHENDwoYxKy2DD4-9" target="XeZJ_jHENDwoYxKy2DD4-5">
          <mxGeometry relative="1" as="geometry" />
        </mxCell>
        <mxCell id="XeZJ_jHENDwoYxKy2DD4-9" value="&lt;font color=&quot;#6600cc&quot; style=&quot;font-size: 10px;&quot;&gt;疾病t&lt;/font&gt;" style="ellipse;whiteSpace=wrap;html=1;aspect=fixed;fillColor=#e1d5e7;strokeColor=#9673a6;" vertex="1" parent="1">
          <mxGeometry x="290" y="100" width="40" height="40" as="geometry" />
        </mxCell>
        <mxCell id="XeZJ_jHENDwoYxKy2DD4-20" value="" style="rounded=0;whiteSpace=wrap;html=1;" vertex="1" parent="1">
          <mxGeometry x="381" y="90" width="210" height="180" as="geometry" />
        </mxCell>
        <mxCell id="XeZJ_jHENDwoYxKy2DD4-29" style="rounded=0;orthogonalLoop=1;jettySize=auto;html=1;exitX=1;exitY=1;exitDx=0;exitDy=0;entryX=0.5;entryY=0;entryDx=0;entryDy=0;startArrow=classic;startFill=1;" edge="1" parent="1" source="XeZJ_jHENDwoYxKy2DD4-22" target="XeZJ_jHENDwoYxKy2DD4-28">
          <mxGeometry relative="1" as="geometry" />
        </mxCell>
        <mxCell id="XeZJ_jHENDwoYxKy2DD4-22" value="&lt;font style=&quot;font-size: 10px;&quot;&gt;药物(D)&lt;/font&gt;" style="ellipse;whiteSpace=wrap;html=1;aspect=fixed;fontSize=11;" vertex="1" parent="1">
          <mxGeometry x="476" y="130" width="40" height="40" as="geometry" />
        </mxCell>
        <mxCell id="XeZJ_jHENDwoYxKy2DD4-24" style="edgeStyle=orthogonalEdgeStyle;rounded=0;orthogonalLoop=1;jettySize=auto;html=1;exitX=0;exitY=0;exitDx=0;exitDy=0;entryX=1;entryY=0;entryDx=0;entryDy=0;curved=1;" edge="1" parent="1" source="XeZJ_jHENDwoYxKy2DD4-22" target="XeZJ_jHENDwoYxKy2DD4-22">
          <mxGeometry relative="1" as="geometry">
            <Array as="points">
              <mxPoint x="482" y="110" />
              <mxPoint x="510" y="110" />
            </Array>
          </mxGeometry>
        </mxCell>
        <mxCell id="XeZJ_jHENDwoYxKy2DD4-25" value="药物-药物互作用关系" style="text;html=1;align=center;verticalAlign=middle;whiteSpace=wrap;rounded=0;fontSize=9;" vertex="1" parent="1">
          <mxGeometry x="414" y="86" width="174" height="30" as="geometry" />
        </mxCell>
        <mxCell id="XeZJ_jHENDwoYxKy2DD4-33" style="rounded=0;orthogonalLoop=1;jettySize=auto;html=1;exitX=0.5;exitY=0;exitDx=0;exitDy=0;entryX=0;entryY=1;entryDx=0;entryDy=0;startArrow=classic;startFill=1;" edge="1" parent="1" source="XeZJ_jHENDwoYxKy2DD4-27" target="XeZJ_jHENDwoYxKy2DD4-22">
          <mxGeometry relative="1" as="geometry" />
        </mxCell>
        <mxCell id="XeZJ_jHENDwoYxKy2DD4-27" value="&lt;span style=&quot;font-size: 9px;&quot;&gt;蛋白质(P)&lt;/span&gt;" style="shape=hexagon;perimeter=hexagonPerimeter2;whiteSpace=wrap;html=1;fixedSize=1;size=10;" vertex="1" parent="1">
          <mxGeometry x="420" y="199" width="50" height="41" as="geometry" />
        </mxCell>
        <mxCell id="XeZJ_jHENDwoYxKy2DD4-28" value="&lt;span style=&quot;font-size: 10px;&quot;&gt;疾病(I)&lt;/span&gt;" style="rhombus;whiteSpace=wrap;html=1;" vertex="1" parent="1">
          <mxGeometry x="520" y="199" width="50" height="50" as="geometry" />
        </mxCell>
        <mxCell id="XeZJ_jHENDwoYxKy2DD4-31" value="治愈/被治愈" style="text;html=1;align=center;verticalAlign=middle;whiteSpace=wrap;rounded=0;fontSize=9;" vertex="1" parent="1">
          <mxGeometry x="490" y="165" width="130" height="30" as="geometry" />
        </mxCell>
        <mxCell id="XeZJ_jHENDwoYxKy2DD4-34" value="是...的靶标/具有靶标" style="text;html=1;align=center;verticalAlign=middle;whiteSpace=wrap;rounded=0;fontSize=9;" vertex="1" parent="1">
          <mxGeometry x="360" y="160" width="130" height="30" as="geometry" />
        </mxCell>
        <mxCell id="XeZJ_jHENDwoYxKy2DD4-35" value="" style="rounded=0;whiteSpace=wrap;html=1;" vertex="1" parent="1">
          <mxGeometry x="171" y="270" width="420" height="130" as="geometry" />
        </mxCell>
        <mxCell id="XeZJ_jHENDwoYxKy2DD4-36" value="&lt;font style=&quot;font-size: 12px;&quot;&gt;&lt;span style=&quot;color: rgb(51, 51, 51); font-family: Arial, sans-serif; text-align: start; background-color: rgb(255, 255, 255);&quot;&gt;药物(D)&amp;nbsp; &amp;nbsp;→&amp;nbsp; &amp;nbsp;疾病(I)&amp;nbsp; &amp;nbsp;&lt;/span&gt;&lt;span style=&quot;color: rgb(51, 51, 51); font-family: Arial, sans-serif; text-align: start; background-color: rgb(255, 255, 255);&quot;&gt;→&amp;nbsp; &amp;nbsp;&lt;/span&gt;&lt;span style=&quot;color: rgb(51, 51, 51); font-family: Arial, sans-serif; text-align: start; background-color: rgb(255, 255, 255);&quot;&gt;药物(D)&lt;/span&gt;&lt;/font&gt;" style="text;html=1;align=center;verticalAlign=middle;whiteSpace=wrap;rounded=0;" vertex="1" parent="1">
          <mxGeometry x="290" y="310" width="194" height="30" as="geometry" />
        </mxCell>
        <mxCell id="XeZJ_jHENDwoYxKy2DD4-37" value="&lt;div style=&quot;text-align: start;&quot;&gt;&lt;br&gt;&lt;/div&gt;" style="text;html=1;align=center;verticalAlign=middle;whiteSpace=wrap;rounded=0;" vertex="1" parent="1">
          <mxGeometry x="290" y="340" width="194" height="30" as="geometry" />
        </mxCell>
        <mxCell id="XeZJ_jHENDwoYxKy2DD4-41" value="蛋白质-蛋白质互作用关系" style="text;html=1;align=center;verticalAlign=middle;whiteSpace=wrap;rounded=0;fontSize=9;" vertex="1" parent="1">
          <mxGeometry x="358" y="241" width="174" height="30" as="geometry" />
        </mxCell>
        <mxCell id="XeZJ_jHENDwoYxKy2DD4-43" style="edgeStyle=orthogonalEdgeStyle;rounded=0;orthogonalLoop=1;jettySize=auto;html=1;exitX=1;exitY=0.75;exitDx=0;exitDy=0;entryX=0;entryY=0.75;entryDx=0;entryDy=0;curved=1;" edge="1" parent="1" source="XeZJ_jHENDwoYxKy2DD4-27" target="XeZJ_jHENDwoYxKy2DD4-27">
          <mxGeometry relative="1" as="geometry">
            <Array as="points">
              <mxPoint x="470" y="228" />
              <mxPoint x="470" y="250" />
              <mxPoint x="410" y="250" />
              <mxPoint x="410" y="228" />
            </Array>
          </mxGeometry>
        </mxCell>
        <mxCell id="XeZJ_jHENDwoYxKy2DD4-44" value="&lt;span style=&quot;font-size: 12px; font-style: normal; font-variant-ligatures: normal; font-variant-caps: normal; font-weight: 400; letter-spacing: normal; orphans: 2; text-indent: 0px; text-transform: none; widows: 2; word-spacing: 0px; -webkit-text-stroke-width: 0px; white-space: normal; text-decoration-thickness: initial; text-decoration-style: initial; text-decoration-color: initial; color: rgb(51, 51, 51); font-family: Arial, sans-serif; text-align: start; background-color: rgb(255, 255, 255);&quot;&gt;药物(D)&amp;nbsp; &amp;nbsp;→&amp;nbsp; &amp;nbsp;蛋白质(P)&amp;nbsp; &amp;nbsp;&lt;/span&gt;&lt;span style=&quot;font-size: 12px; font-style: normal; font-variant-ligatures: normal; font-variant-caps: normal; font-weight: 400; letter-spacing: normal; orphans: 2; text-indent: 0px; text-transform: none; widows: 2; word-spacing: 0px; -webkit-text-stroke-width: 0px; white-space: normal; text-decoration-thickness: initial; text-decoration-style: initial; text-decoration-color: initial; color: rgb(51, 51, 51); font-family: Arial, sans-serif; text-align: start; background-color: rgb(255, 255, 255);&quot;&gt;→&amp;nbsp; &amp;nbsp;&lt;/span&gt;&lt;span style=&quot;font-size: 12px; font-style: normal; font-variant-ligatures: normal; font-variant-caps: normal; font-weight: 400; letter-spacing: normal; orphans: 2; text-indent: 0px; text-transform: none; widows: 2; word-spacing: 0px; -webkit-text-stroke-width: 0px; white-space: normal; text-decoration-thickness: initial; text-decoration-style: initial; text-decoration-color: initial; color: rgb(51, 51, 51); font-family: Arial, sans-serif; text-align: start; background-color: rgb(255, 255, 255);&quot;&gt;蛋白质(P)&amp;nbsp; &amp;nbsp;→&amp;nbsp; &amp;nbsp;药物(D)&lt;/span&gt;" style="text;whiteSpace=wrap;html=1;" vertex="1" parent="1">
          <mxGeometry x="240" y="348" width="320" height="40" as="geometry" />
        </mxCell>
        <mxCell id="XeZJ_jHENDwoYxKy2DD4-45" value="&lt;font style=&quot;font-size: 7px;&quot;&gt;治愈&lt;/font&gt;" style="text;html=1;align=center;verticalAlign=middle;whiteSpace=wrap;rounded=0;" vertex="1" parent="1">
          <mxGeometry x="341" y="303" width="22" height="18" as="geometry" />
        </mxCell>
        <mxCell id="XeZJ_jHENDwoYxKy2DD4-46" value="&lt;font style=&quot;font-size: 7px;&quot;&gt;被治愈&lt;/font&gt;" style="text;html=1;align=center;verticalAlign=middle;whiteSpace=wrap;rounded=0;" vertex="1" parent="1">
          <mxGeometry x="405" y="303" width="31" height="18" as="geometry" />
        </mxCell>
        <mxCell id="XeZJ_jHENDwoYxKy2DD4-47" value="&lt;font style=&quot;font-size: 7px;&quot;&gt;具有靶标&lt;/font&gt;" style="text;html=1;align=center;verticalAlign=middle;whiteSpace=wrap;rounded=0;" vertex="1" parent="1">
          <mxGeometry x="283" y="337" width="30" height="18" as="geometry" />
        </mxCell>
        <mxCell id="XeZJ_jHENDwoYxKy2DD4-48" value="&lt;p style=&quot;line-height: 40%;&quot;&gt;&lt;span style=&quot;font-size: 6px;&quot;&gt;蛋白质-蛋白质互作用关系&lt;/span&gt;&lt;/p&gt;" style="text;html=1;align=center;verticalAlign=middle;whiteSpace=wrap;rounded=0;" vertex="1" parent="1">
          <mxGeometry x="360" y="339" width="44" height="18" as="geometry" />
        </mxCell>
        <mxCell id="XeZJ_jHENDwoYxKy2DD4-49" value="&lt;font style=&quot;font-size: 7px;&quot;&gt;是…的靶标&lt;/font&gt;" style="text;html=1;align=center;verticalAlign=middle;whiteSpace=wrap;rounded=0;" vertex="1" parent="1">
          <mxGeometry x="444" y="336" width="46" height="18" as="geometry" />
        </mxCell>
        <mxCell id="XeZJ_jHENDwoYxKy2DD4-50" value="(a)" style="text;html=1;align=center;verticalAlign=middle;whiteSpace=wrap;rounded=0;" vertex="1" parent="1">
          <mxGeometry x="154" y="88" width="60" height="30" as="geometry" />
        </mxCell>
        <mxCell id="XeZJ_jHENDwoYxKy2DD4-51" value="(b)" style="text;html=1;align=center;verticalAlign=middle;whiteSpace=wrap;rounded=0;" vertex="1" parent="1">
          <mxGeometry x="363" y="86" width="60" height="30" as="geometry" />
        </mxCell>
        <mxCell id="XeZJ_jHENDwoYxKy2DD4-52" value="(c)" style="text;html=1;align=center;verticalAlign=middle;whiteSpace=wrap;rounded=0;" vertex="1" parent="1">
          <mxGeometry x="154" y="270" width="60" height="30" as="geometry" />
        </mxCell>
        <mxCell id="XeZJ_jHENDwoYxKy2DD4-53" value="&lt;font style=&quot;font-size: 12px;&quot;&gt;&lt;span style=&quot;color: rgb(51, 51, 51); font-family: Arial, sans-serif; text-align: start; background-color: rgb(255, 255, 255);&quot;&gt;药物(D)&amp;nbsp;&amp;nbsp;&lt;/span&gt;&lt;span style=&quot;color: rgb(51, 51, 51); font-family: Arial, sans-serif; text-align: start; background-color: rgb(255, 255, 255);&quot;&gt;→&amp;nbsp; &amp;nbsp;&lt;/span&gt;&lt;span style=&quot;color: rgb(51, 51, 51); font-family: Arial, sans-serif; text-align: start; background-color: rgb(255, 255, 255);&quot;&gt;药物(D)&lt;/span&gt;&lt;/font&gt;" style="text;html=1;align=center;verticalAlign=middle;whiteSpace=wrap;rounded=0;" vertex="1" parent="1">
          <mxGeometry x="290" y="280" width="194" height="30" as="geometry" />
        </mxCell>
        <mxCell id="XeZJ_jHENDwoYxKy2DD4-55" value="&lt;p style=&quot;line-height: 50%;&quot;&gt;&lt;span style=&quot;font-size: 6px;&quot;&gt;&amp;nbsp;药物-药物&lt;/span&gt;&lt;span style=&quot;font-size: 6px; background-color: initial;&quot;&gt;互作用关系&lt;/span&gt;&lt;/p&gt;" style="text;html=1;align=center;verticalAlign=middle;whiteSpace=wrap;rounded=0;" vertex="1" parent="1">
          <mxGeometry x="350.5" y="273" width="67" height="18" as="geometry" />
        </mxCell>
        <mxCell id="XeZJ_jHENDwoYxKy2DD4-56" value="&lt;div style=&quot;text-align: start;&quot;&gt;&lt;font face=&quot;Arial, sans-serif&quot; color=&quot;#333333&quot;&gt;&lt;span style=&quot;background-color: rgb(255, 255, 255);&quot;&gt;……&lt;/span&gt;&lt;/font&gt;&lt;/div&gt;" style="text;html=1;align=center;verticalAlign=middle;whiteSpace=wrap;rounded=0;" vertex="1" parent="1">
          <mxGeometry x="290" y="370" width="194" height="30" as="geometry" />
        </mxCell>
      </root>
    </mxGraphModel>
  </diagram>
</mxfile>
